<mxfile host="app.diagrams.net" agent="Mozilla/5.0 (X11; Linux x86_64) AppleWebKit/537.36 (KHTML, like Gecko) Chrome/128.0.0.0 Safari/537.36" version="24.7.14">
  <diagram name="Seite-1" id="sCCNY-dYHZ1F_39sJ05m">
    <mxGraphModel dx="2049" dy="1060" grid="1" gridSize="10" guides="1" tooltips="1" connect="1" arrows="1" fold="1" page="1" pageScale="1" pageWidth="827" pageHeight="1169" math="0" shadow="0">
      <root>
        <mxCell id="0" />
        <mxCell id="1" parent="0" />
        <mxCell id="epZNPIwb_9kqau7Ob3g8-31" value="&lt;span style=&quot;font-weight: 400;&quot;&gt;Struct Tätikeit&lt;/span&gt;" style="swimlane;whiteSpace=wrap;html=1;" vertex="1" parent="1">
          <mxGeometry x="370" y="20" width="200" height="150" as="geometry">
            <mxRectangle x="280" y="400" width="110" height="30" as="alternateBounds" />
          </mxGeometry>
        </mxCell>
        <mxCell id="epZNPIwb_9kqau7Ob3g8-32" value="Tätikeits ID" style="text;html=1;align=center;verticalAlign=middle;resizable=0;points=[];autosize=1;strokeColor=none;fillColor=none;" vertex="1" parent="epZNPIwb_9kqau7Ob3g8-31">
          <mxGeometry x="-5" y="30" width="80" height="30" as="geometry" />
        </mxCell>
        <mxCell id="epZNPIwb_9kqau7Ob3g8-33" value="Tätikeits Text" style="text;html=1;align=center;verticalAlign=middle;resizable=0;points=[];autosize=1;strokeColor=none;fillColor=none;" vertex="1" parent="epZNPIwb_9kqau7Ob3g8-31">
          <mxGeometry x="-5" y="60" width="90" height="30" as="geometry" />
        </mxCell>
        <mxCell id="epZNPIwb_9kqau7Ob3g8-34" value="Vorhärige Tätikeits *ptr" style="text;html=1;align=center;verticalAlign=middle;resizable=0;points=[];autosize=1;strokeColor=none;fillColor=none;" vertex="1" parent="epZNPIwb_9kqau7Ob3g8-31">
          <mxGeometry x="-5" y="90" width="140" height="30" as="geometry" />
        </mxCell>
        <mxCell id="epZNPIwb_9kqau7Ob3g8-35" value="Nächste Tätikeits *ptr" style="text;html=1;align=center;verticalAlign=middle;resizable=0;points=[];autosize=1;strokeColor=none;fillColor=none;" vertex="1" parent="epZNPIwb_9kqau7Ob3g8-31">
          <mxGeometry x="-5" y="120" width="140" height="30" as="geometry" />
        </mxCell>
        <mxCell id="epZNPIwb_9kqau7Ob3g8-36" value="Report.txt (Aufbau)" style="swimlane;fontStyle=0;childLayout=stackLayout;horizontal=1;startSize=30;horizontalStack=0;resizeParent=1;resizeParentMax=0;resizeLast=0;collapsible=1;marginBottom=0;whiteSpace=wrap;html=1;" vertex="1" parent="1">
          <mxGeometry x="370" y="232.5" width="140" height="120" as="geometry" />
        </mxCell>
        <mxCell id="epZNPIwb_9kqau7Ob3g8-37" value="Tätikeit 1 \n" style="text;strokeColor=none;fillColor=none;align=left;verticalAlign=middle;spacingLeft=4;spacingRight=4;overflow=hidden;points=[[0,0.5],[1,0.5]];portConstraint=eastwest;rotatable=0;whiteSpace=wrap;html=1;" vertex="1" parent="epZNPIwb_9kqau7Ob3g8-36">
          <mxGeometry y="30" width="140" height="30" as="geometry" />
        </mxCell>
        <mxCell id="epZNPIwb_9kqau7Ob3g8-38" value="Tätikeit 2 \n" style="text;strokeColor=none;fillColor=none;align=left;verticalAlign=middle;spacingLeft=4;spacingRight=4;overflow=hidden;points=[[0,0.5],[1,0.5]];portConstraint=eastwest;rotatable=0;whiteSpace=wrap;html=1;" vertex="1" parent="epZNPIwb_9kqau7Ob3g8-36">
          <mxGeometry y="60" width="140" height="30" as="geometry" />
        </mxCell>
        <mxCell id="epZNPIwb_9kqau7Ob3g8-39" value="Tätikeit 3 \n" style="text;strokeColor=none;fillColor=none;align=left;verticalAlign=middle;spacingLeft=4;spacingRight=4;overflow=hidden;points=[[0,0.5],[1,0.5]];portConstraint=eastwest;rotatable=0;whiteSpace=wrap;html=1;" vertex="1" parent="epZNPIwb_9kqau7Ob3g8-36">
          <mxGeometry y="90" width="140" height="30" as="geometry" />
        </mxCell>
        <mxCell id="epZNPIwb_9kqau7Ob3g8-115" value="" style="group" vertex="1" connectable="0" parent="1">
          <mxGeometry x="620" y="590" width="340" height="390" as="geometry" />
        </mxCell>
        <mxCell id="epZNPIwb_9kqau7Ob3g8-103" value="&lt;b&gt;Ausgabe()&lt;/b&gt;" style="rounded=1;whiteSpace=wrap;html=1;verticalAlign=top;" vertex="1" parent="epZNPIwb_9kqau7Ob3g8-115">
          <mxGeometry width="340" height="390" as="geometry" />
        </mxCell>
        <mxCell id="epZNPIwb_9kqau7Ob3g8-104" value="Check Bool empty_list" style="rounded=0;whiteSpace=wrap;html=1;" vertex="1" parent="epZNPIwb_9kqau7Ob3g8-115">
          <mxGeometry x="30" y="40" width="280" height="60" as="geometry" />
        </mxCell>
        <mxCell id="epZNPIwb_9kqau7Ob3g8-107" value="" style="edgeStyle=orthogonalEdgeStyle;rounded=0;orthogonalLoop=1;jettySize=auto;html=1;" edge="1" parent="epZNPIwb_9kqau7Ob3g8-115" source="epZNPIwb_9kqau7Ob3g8-105" target="epZNPIwb_9kqau7Ob3g8-104">
          <mxGeometry relative="1" as="geometry" />
        </mxCell>
        <mxCell id="epZNPIwb_9kqau7Ob3g8-105" value="TRUE" style="rounded=0;whiteSpace=wrap;html=1;" vertex="1" parent="epZNPIwb_9kqau7Ob3g8-115">
          <mxGeometry x="30" y="130" width="120" height="30" as="geometry" />
        </mxCell>
        <mxCell id="epZNPIwb_9kqau7Ob3g8-108" value="" style="edgeStyle=orthogonalEdgeStyle;rounded=0;orthogonalLoop=1;jettySize=auto;html=1;" edge="1" parent="epZNPIwb_9kqau7Ob3g8-115" source="epZNPIwb_9kqau7Ob3g8-106" target="epZNPIwb_9kqau7Ob3g8-105">
          <mxGeometry relative="1" as="geometry" />
        </mxCell>
        <mxCell id="epZNPIwb_9kqau7Ob3g8-106" value="printf(&quot;Fehler: Keine Report.txt&lt;div&gt;Neue Report.txt wird erstellt wenn eine Tätikeit Eingetragen wird&quot;)&lt;/div&gt;" style="rounded=0;whiteSpace=wrap;html=1;" vertex="1" parent="epZNPIwb_9kqau7Ob3g8-115">
          <mxGeometry x="30" y="180" width="120" height="110" as="geometry" />
        </mxCell>
        <mxCell id="epZNPIwb_9kqau7Ob3g8-112" value="" style="edgeStyle=orthogonalEdgeStyle;rounded=0;orthogonalLoop=1;jettySize=auto;html=1;" edge="1" parent="epZNPIwb_9kqau7Ob3g8-115" source="epZNPIwb_9kqau7Ob3g8-110" target="epZNPIwb_9kqau7Ob3g8-104">
          <mxGeometry relative="1" as="geometry" />
        </mxCell>
        <mxCell id="epZNPIwb_9kqau7Ob3g8-114" value="" style="edgeStyle=orthogonalEdgeStyle;rounded=0;orthogonalLoop=1;jettySize=auto;html=1;" edge="1" parent="epZNPIwb_9kqau7Ob3g8-115" source="epZNPIwb_9kqau7Ob3g8-110" target="epZNPIwb_9kqau7Ob3g8-113">
          <mxGeometry relative="1" as="geometry" />
        </mxCell>
        <mxCell id="epZNPIwb_9kqau7Ob3g8-110" value="FALSE" style="rounded=0;whiteSpace=wrap;html=1;" vertex="1" parent="epZNPIwb_9kqau7Ob3g8-115">
          <mxGeometry x="190" y="130" width="120" height="30" as="geometry" />
        </mxCell>
        <mxCell id="epZNPIwb_9kqau7Ob3g8-113" value="Ausgabe aller Zeilen&amp;nbsp;" style="rounded=0;whiteSpace=wrap;html=1;" vertex="1" parent="epZNPIwb_9kqau7Ob3g8-115">
          <mxGeometry x="190" y="240" width="120" height="30" as="geometry" />
        </mxCell>
        <mxCell id="epZNPIwb_9kqau7Ob3g8-124" value="" style="group" vertex="1" connectable="0" parent="1">
          <mxGeometry x="370" y="590" width="220" height="330" as="geometry" />
        </mxCell>
        <mxCell id="epZNPIwb_9kqau7Ob3g8-117" value="&lt;b&gt;Eingabe(char* input)&lt;/b&gt;" style="rounded=1;whiteSpace=wrap;html=1;verticalAlign=top;" vertex="1" parent="epZNPIwb_9kqau7Ob3g8-124">
          <mxGeometry width="220" height="330" as="geometry" />
        </mxCell>
        <mxCell id="epZNPIwb_9kqau7Ob3g8-119" value="" style="edgeStyle=orthogonalEdgeStyle;rounded=0;orthogonalLoop=1;jettySize=auto;html=1;" edge="1" parent="epZNPIwb_9kqau7Ob3g8-124" source="epZNPIwb_9kqau7Ob3g8-116" target="epZNPIwb_9kqau7Ob3g8-118">
          <mxGeometry relative="1" as="geometry" />
        </mxCell>
        <mxCell id="epZNPIwb_9kqau7Ob3g8-116" value="Erstellen eines neuen Struct Elements" style="rounded=0;whiteSpace=wrap;html=1;" vertex="1" parent="epZNPIwb_9kqau7Ob3g8-124">
          <mxGeometry x="50" y="40" width="120" height="40" as="geometry" />
        </mxCell>
        <mxCell id="epZNPIwb_9kqau7Ob3g8-121" value="" style="edgeStyle=orthogonalEdgeStyle;rounded=0;orthogonalLoop=1;jettySize=auto;html=1;" edge="1" parent="epZNPIwb_9kqau7Ob3g8-124" source="epZNPIwb_9kqau7Ob3g8-118" target="epZNPIwb_9kqau7Ob3g8-120">
          <mxGeometry relative="1" as="geometry" />
        </mxCell>
        <mxCell id="epZNPIwb_9kqau7Ob3g8-118" value="Bearbeiten der *ptr für dieses und letze element für die Linked List" style="rounded=0;whiteSpace=wrap;html=1;" vertex="1" parent="epZNPIwb_9kqau7Ob3g8-124">
          <mxGeometry x="15" y="100" width="190" height="50" as="geometry" />
        </mxCell>
        <mxCell id="epZNPIwb_9kqau7Ob3g8-123" value="" style="edgeStyle=orthogonalEdgeStyle;rounded=0;orthogonalLoop=1;jettySize=auto;html=1;" edge="1" parent="epZNPIwb_9kqau7Ob3g8-124" source="epZNPIwb_9kqau7Ob3g8-120" target="epZNPIwb_9kqau7Ob3g8-122">
          <mxGeometry relative="1" as="geometry" />
        </mxCell>
        <mxCell id="epZNPIwb_9kqau7Ob3g8-120" value="Speichere neue eingabe und ID ins Element" style="rounded=0;whiteSpace=wrap;html=1;" vertex="1" parent="epZNPIwb_9kqau7Ob3g8-124">
          <mxGeometry x="15" y="170" width="190" height="50" as="geometry" />
        </mxCell>
        <mxCell id="epZNPIwb_9kqau7Ob3g8-122" value="Info an User" style="rounded=0;whiteSpace=wrap;html=1;" vertex="1" parent="epZNPIwb_9kqau7Ob3g8-124">
          <mxGeometry x="15" y="250" width="190" height="50" as="geometry" />
        </mxCell>
        <mxCell id="epZNPIwb_9kqau7Ob3g8-125" value="" style="endArrow=classic;startArrow=classic;html=1;rounded=0;exitX=0.5;exitY=0;exitDx=0;exitDy=0;entryX=0;entryY=0.75;entryDx=0;entryDy=0;" edge="1" parent="1" source="epZNPIwb_9kqau7Ob3g8-117" target="epZNPIwb_9kqau7Ob3g8-95">
          <mxGeometry width="50" height="50" relative="1" as="geometry">
            <mxPoint x="470" y="730" as="sourcePoint" />
            <mxPoint x="520" y="680" as="targetPoint" />
          </mxGeometry>
        </mxCell>
        <mxCell id="epZNPIwb_9kqau7Ob3g8-126" value="" style="endArrow=classic;startArrow=classic;html=1;rounded=0;entryX=0.283;entryY=1.017;entryDx=0;entryDy=0;exitX=0.5;exitY=0;exitDx=0;exitDy=0;entryPerimeter=0;" edge="1" parent="1" source="epZNPIwb_9kqau7Ob3g8-103" target="epZNPIwb_9kqau7Ob3g8-95">
          <mxGeometry width="50" height="50" relative="1" as="geometry">
            <mxPoint x="510" y="850" as="sourcePoint" />
            <mxPoint x="560" y="800" as="targetPoint" />
          </mxGeometry>
        </mxCell>
        <mxCell id="epZNPIwb_9kqau7Ob3g8-139" value="" style="group" vertex="1" connectable="0" parent="1">
          <mxGeometry x="977" y="590" width="303" height="390" as="geometry" />
        </mxCell>
        <mxCell id="epZNPIwb_9kqau7Ob3g8-127" value="&lt;b&gt;Löschen(int ID)&lt;/b&gt;" style="rounded=1;whiteSpace=wrap;html=1;verticalAlign=top;" vertex="1" parent="epZNPIwb_9kqau7Ob3g8-139">
          <mxGeometry width="303" height="390" as="geometry" />
        </mxCell>
        <mxCell id="epZNPIwb_9kqau7Ob3g8-130" value="" style="edgeStyle=orthogonalEdgeStyle;rounded=0;orthogonalLoop=1;jettySize=auto;html=1;" edge="1" parent="epZNPIwb_9kqau7Ob3g8-139" source="epZNPIwb_9kqau7Ob3g8-128" target="epZNPIwb_9kqau7Ob3g8-129">
          <mxGeometry relative="1" as="geometry" />
        </mxCell>
        <mxCell id="epZNPIwb_9kqau7Ob3g8-128" value="Fange beim ersten element an, und Suche nach übereinstimmender ID" style="rounded=0;whiteSpace=wrap;html=1;" vertex="1" parent="epZNPIwb_9kqau7Ob3g8-139">
          <mxGeometry x="61.5" y="40" width="180" height="60" as="geometry" />
        </mxCell>
        <mxCell id="epZNPIwb_9kqau7Ob3g8-136" value="" style="edgeStyle=orthogonalEdgeStyle;rounded=0;orthogonalLoop=1;jettySize=auto;html=1;" edge="1" parent="epZNPIwb_9kqau7Ob3g8-139" source="epZNPIwb_9kqau7Ob3g8-129" target="epZNPIwb_9kqau7Ob3g8-135">
          <mxGeometry relative="1" as="geometry" />
        </mxCell>
        <mxCell id="epZNPIwb_9kqau7Ob3g8-129" value="Bearbeite *ptr für letzte und nächste element bei ID-1 u. ID+1 elemente" style="rounded=0;whiteSpace=wrap;html=1;" vertex="1" parent="epZNPIwb_9kqau7Ob3g8-139">
          <mxGeometry x="61.5" y="120" width="180" height="60" as="geometry" />
        </mxCell>
        <mxCell id="epZNPIwb_9kqau7Ob3g8-138" value="" style="edgeStyle=orthogonalEdgeStyle;rounded=0;orthogonalLoop=1;jettySize=auto;html=1;" edge="1" parent="epZNPIwb_9kqau7Ob3g8-139" source="epZNPIwb_9kqau7Ob3g8-135" target="epZNPIwb_9kqau7Ob3g8-137">
          <mxGeometry relative="1" as="geometry" />
        </mxCell>
        <mxCell id="epZNPIwb_9kqau7Ob3g8-135" value="free(*ptr) von dem Element mit der ID" style="rounded=0;whiteSpace=wrap;html=1;" vertex="1" parent="epZNPIwb_9kqau7Ob3g8-139">
          <mxGeometry x="61.5" y="200" width="180" height="60" as="geometry" />
        </mxCell>
        <mxCell id="epZNPIwb_9kqau7Ob3g8-137" value="Info an User" style="rounded=0;whiteSpace=wrap;html=1;" vertex="1" parent="epZNPIwb_9kqau7Ob3g8-139">
          <mxGeometry x="61.5" y="280" width="180" height="30" as="geometry" />
        </mxCell>
        <mxCell id="epZNPIwb_9kqau7Ob3g8-140" value="" style="endArrow=classic;startArrow=classic;html=1;rounded=0;entryX=0.75;entryY=1;entryDx=0;entryDy=0;exitX=0.5;exitY=0;exitDx=0;exitDy=0;" edge="1" parent="1" source="epZNPIwb_9kqau7Ob3g8-127" target="epZNPIwb_9kqau7Ob3g8-95">
          <mxGeometry width="50" height="50" relative="1" as="geometry">
            <mxPoint x="510" y="850" as="sourcePoint" />
            <mxPoint x="560" y="800" as="targetPoint" />
          </mxGeometry>
        </mxCell>
        <mxCell id="epZNPIwb_9kqau7Ob3g8-155" value="" style="endArrow=classic;startArrow=classic;html=1;rounded=0;entryX=0.5;entryY=0;entryDx=0;entryDy=0;exitX=1;exitY=0.75;exitDx=0;exitDy=0;" edge="1" parent="1" source="epZNPIwb_9kqau7Ob3g8-95" target="epZNPIwb_9kqau7Ob3g8-142">
          <mxGeometry width="50" height="50" relative="1" as="geometry">
            <mxPoint x="930" y="920" as="sourcePoint" />
            <mxPoint x="980" y="870" as="targetPoint" />
          </mxGeometry>
        </mxCell>
        <mxCell id="epZNPIwb_9kqau7Ob3g8-156" value="" style="group" vertex="1" connectable="0" parent="1">
          <mxGeometry x="1310" y="590" width="290" height="390" as="geometry" />
        </mxCell>
        <mxCell id="epZNPIwb_9kqau7Ob3g8-142" value="&lt;b&gt;Beenden()&lt;/b&gt;" style="rounded=1;whiteSpace=wrap;html=1;verticalAlign=top;" vertex="1" parent="epZNPIwb_9kqau7Ob3g8-156">
          <mxGeometry width="290" height="390" as="geometry" />
        </mxCell>
        <mxCell id="epZNPIwb_9kqau7Ob3g8-146" value="" style="edgeStyle=orthogonalEdgeStyle;rounded=0;orthogonalLoop=1;jettySize=auto;html=1;" edge="1" parent="epZNPIwb_9kqau7Ob3g8-156" source="epZNPIwb_9kqau7Ob3g8-144" target="epZNPIwb_9kqau7Ob3g8-145">
          <mxGeometry relative="1" as="geometry" />
        </mxCell>
        <mxCell id="epZNPIwb_9kqau7Ob3g8-144" value="Löschen der Alten report.txt" style="rounded=0;whiteSpace=wrap;html=1;" vertex="1" parent="epZNPIwb_9kqau7Ob3g8-156">
          <mxGeometry x="85" y="40" width="120" height="30" as="geometry" />
        </mxCell>
        <mxCell id="epZNPIwb_9kqau7Ob3g8-148" value="" style="edgeStyle=orthogonalEdgeStyle;rounded=0;orthogonalLoop=1;jettySize=auto;html=1;" edge="1" parent="epZNPIwb_9kqau7Ob3g8-156" source="epZNPIwb_9kqau7Ob3g8-145" target="epZNPIwb_9kqau7Ob3g8-147">
          <mxGeometry relative="1" as="geometry" />
        </mxCell>
        <mxCell id="epZNPIwb_9kqau7Ob3g8-145" value="Neu erstellen der report.txt" style="rounded=0;whiteSpace=wrap;html=1;" vertex="1" parent="epZNPIwb_9kqau7Ob3g8-156">
          <mxGeometry x="85" y="80" width="120" height="30" as="geometry" />
        </mxCell>
        <mxCell id="epZNPIwb_9kqau7Ob3g8-150" value="" style="edgeStyle=orthogonalEdgeStyle;rounded=0;orthogonalLoop=1;jettySize=auto;html=1;" edge="1" parent="epZNPIwb_9kqau7Ob3g8-156" source="epZNPIwb_9kqau7Ob3g8-147" target="epZNPIwb_9kqau7Ob3g8-149">
          <mxGeometry relative="1" as="geometry" />
        </mxCell>
        <mxCell id="epZNPIwb_9kqau7Ob3g8-147" value="Schreiben aller Zeilen von der Linked list &lt;b&gt;BIS &lt;/b&gt;nöchster *ptr == nullptr" style="rounded=0;whiteSpace=wrap;html=1;" vertex="1" parent="epZNPIwb_9kqau7Ob3g8-156">
          <mxGeometry x="67.5" y="130" width="155" height="60" as="geometry" />
        </mxCell>
        <mxCell id="epZNPIwb_9kqau7Ob3g8-152" value="" style="edgeStyle=orthogonalEdgeStyle;rounded=0;orthogonalLoop=1;jettySize=auto;html=1;" edge="1" parent="epZNPIwb_9kqau7Ob3g8-156" source="epZNPIwb_9kqau7Ob3g8-149" target="epZNPIwb_9kqau7Ob3g8-151">
          <mxGeometry relative="1" as="geometry" />
        </mxCell>
        <mxCell id="epZNPIwb_9kqau7Ob3g8-149" value="break; Exit die Endloss schleife" style="rounded=0;whiteSpace=wrap;html=1;" vertex="1" parent="epZNPIwb_9kqau7Ob3g8-156">
          <mxGeometry x="67.5" y="210" width="155" height="40" as="geometry" />
        </mxCell>
        <mxCell id="epZNPIwb_9kqau7Ob3g8-154" value="" style="edgeStyle=orthogonalEdgeStyle;rounded=0;orthogonalLoop=1;jettySize=auto;html=1;" edge="1" parent="epZNPIwb_9kqau7Ob3g8-156" source="epZNPIwb_9kqau7Ob3g8-151" target="epZNPIwb_9kqau7Ob3g8-153">
          <mxGeometry relative="1" as="geometry" />
        </mxCell>
        <mxCell id="epZNPIwb_9kqau7Ob3g8-151" value="Info an User" style="rounded=0;whiteSpace=wrap;html=1;" vertex="1" parent="epZNPIwb_9kqau7Ob3g8-156">
          <mxGeometry x="67.5" y="270" width="155" height="40" as="geometry" />
        </mxCell>
        <mxCell id="epZNPIwb_9kqau7Ob3g8-153" value="Beenden des Programms" style="rounded=0;whiteSpace=wrap;html=1;" vertex="1" parent="epZNPIwb_9kqau7Ob3g8-156">
          <mxGeometry x="67.5" y="330" width="155" height="40" as="geometry" />
        </mxCell>
        <mxCell id="epZNPIwb_9kqau7Ob3g8-163" value="" style="group" vertex="1" connectable="0" parent="1">
          <mxGeometry x="680" y="20" width="626" height="545" as="geometry" />
        </mxCell>
        <mxCell id="epZNPIwb_9kqau7Ob3g8-100" value="&lt;b&gt;Program Init&lt;/b&gt;" style="rounded=1;whiteSpace=wrap;html=1;verticalAlign=top;" vertex="1" parent="epZNPIwb_9kqau7Ob3g8-163">
          <mxGeometry width="626" height="545" as="geometry" />
        </mxCell>
        <mxCell id="epZNPIwb_9kqau7Ob3g8-43" value="" style="edgeStyle=orthogonalEdgeStyle;rounded=0;orthogonalLoop=1;jettySize=auto;html=1;" edge="1" parent="epZNPIwb_9kqau7Ob3g8-163" source="epZNPIwb_9kqau7Ob3g8-41" target="epZNPIwb_9kqau7Ob3g8-42">
          <mxGeometry relative="1" as="geometry" />
        </mxCell>
        <mxCell id="epZNPIwb_9kqau7Ob3g8-41" value="Program Start" style="rounded=0;whiteSpace=wrap;html=1;" vertex="1" parent="epZNPIwb_9kqau7Ob3g8-163">
          <mxGeometry x="41" y="15" width="120" height="30" as="geometry" />
        </mxCell>
        <mxCell id="epZNPIwb_9kqau7Ob3g8-45" value="" style="edgeStyle=orthogonalEdgeStyle;rounded=0;orthogonalLoop=1;jettySize=auto;html=1;" edge="1" parent="epZNPIwb_9kqau7Ob3g8-163" source="epZNPIwb_9kqau7Ob3g8-42" target="epZNPIwb_9kqau7Ob3g8-44">
          <mxGeometry relative="1" as="geometry" />
        </mxCell>
        <mxCell id="epZNPIwb_9kqau7Ob3g8-47" value="" style="edgeStyle=orthogonalEdgeStyle;rounded=0;orthogonalLoop=1;jettySize=auto;html=1;" edge="1" parent="epZNPIwb_9kqau7Ob3g8-163" source="epZNPIwb_9kqau7Ob3g8-42" target="epZNPIwb_9kqau7Ob3g8-46">
          <mxGeometry relative="1" as="geometry" />
        </mxCell>
        <mxCell id="epZNPIwb_9kqau7Ob3g8-42" value="Gibt es Report.txt ?" style="rounded=0;whiteSpace=wrap;html=1;" vertex="1" parent="epZNPIwb_9kqau7Ob3g8-163">
          <mxGeometry x="41" y="65" width="120" height="30" as="geometry" />
        </mxCell>
        <mxCell id="epZNPIwb_9kqau7Ob3g8-49" value="" style="edgeStyle=orthogonalEdgeStyle;rounded=0;orthogonalLoop=1;jettySize=auto;html=1;" edge="1" parent="epZNPIwb_9kqau7Ob3g8-163" source="epZNPIwb_9kqau7Ob3g8-44" target="epZNPIwb_9kqau7Ob3g8-48">
          <mxGeometry relative="1" as="geometry" />
        </mxCell>
        <mxCell id="epZNPIwb_9kqau7Ob3g8-44" value="JA" style="rounded=0;whiteSpace=wrap;html=1;" vertex="1" parent="epZNPIwb_9kqau7Ob3g8-163">
          <mxGeometry x="406" y="60" width="120" height="40" as="geometry" />
        </mxCell>
        <mxCell id="epZNPIwb_9kqau7Ob3g8-68" value="" style="edgeStyle=orthogonalEdgeStyle;rounded=0;orthogonalLoop=1;jettySize=auto;html=1;" edge="1" parent="epZNPIwb_9kqau7Ob3g8-163" source="epZNPIwb_9kqau7Ob3g8-46" target="epZNPIwb_9kqau7Ob3g8-67">
          <mxGeometry relative="1" as="geometry" />
        </mxCell>
        <mxCell id="epZNPIwb_9kqau7Ob3g8-46" value="NEIN" style="rounded=0;whiteSpace=wrap;html=1;" vertex="1" parent="epZNPIwb_9kqau7Ob3g8-163">
          <mxGeometry x="46" y="135" width="110" height="50" as="geometry" />
        </mxCell>
        <mxCell id="epZNPIwb_9kqau7Ob3g8-52" value="" style="edgeStyle=orthogonalEdgeStyle;rounded=0;orthogonalLoop=1;jettySize=auto;html=1;" edge="1" parent="epZNPIwb_9kqau7Ob3g8-163" source="epZNPIwb_9kqau7Ob3g8-48" target="epZNPIwb_9kqau7Ob3g8-51">
          <mxGeometry relative="1" as="geometry" />
        </mxCell>
        <mxCell id="epZNPIwb_9kqau7Ob3g8-48" value="Lese Nächste Zeile" style="whiteSpace=wrap;html=1;rounded=0;" vertex="1" parent="epZNPIwb_9kqau7Ob3g8-163">
          <mxGeometry x="406" y="125" width="120" height="30" as="geometry" />
        </mxCell>
        <mxCell id="epZNPIwb_9kqau7Ob3g8-54" value="" style="edgeStyle=orthogonalEdgeStyle;rounded=0;orthogonalLoop=1;jettySize=auto;html=1;" edge="1" parent="epZNPIwb_9kqau7Ob3g8-163" source="epZNPIwb_9kqau7Ob3g8-51" target="epZNPIwb_9kqau7Ob3g8-53">
          <mxGeometry relative="1" as="geometry" />
        </mxCell>
        <mxCell id="epZNPIwb_9kqau7Ob3g8-160" style="edgeStyle=orthogonalEdgeStyle;rounded=0;orthogonalLoop=1;jettySize=auto;html=1;exitX=0;exitY=0.5;exitDx=0;exitDy=0;entryX=1;entryY=0.5;entryDx=0;entryDy=0;" edge="1" parent="epZNPIwb_9kqau7Ob3g8-163" source="epZNPIwb_9kqau7Ob3g8-51" target="epZNPIwb_9kqau7Ob3g8-55">
          <mxGeometry relative="1" as="geometry" />
        </mxCell>
        <mxCell id="epZNPIwb_9kqau7Ob3g8-51" value="Ist Zeile EOF?" style="whiteSpace=wrap;html=1;rounded=0;" vertex="1" parent="epZNPIwb_9kqau7Ob3g8-163">
          <mxGeometry x="406" y="175" width="120" height="30" as="geometry" />
        </mxCell>
        <mxCell id="epZNPIwb_9kqau7Ob3g8-58" value="" style="edgeStyle=orthogonalEdgeStyle;rounded=0;orthogonalLoop=1;jettySize=auto;html=1;" edge="1" parent="epZNPIwb_9kqau7Ob3g8-163" source="epZNPIwb_9kqau7Ob3g8-53" target="epZNPIwb_9kqau7Ob3g8-57">
          <mxGeometry relative="1" as="geometry" />
        </mxCell>
        <mxCell id="epZNPIwb_9kqau7Ob3g8-53" value="NEIN" style="whiteSpace=wrap;html=1;rounded=0;" vertex="1" parent="epZNPIwb_9kqau7Ob3g8-163">
          <mxGeometry x="406" y="225" width="120" height="30" as="geometry" />
        </mxCell>
        <mxCell id="epZNPIwb_9kqau7Ob3g8-161" style="edgeStyle=orthogonalEdgeStyle;rounded=0;orthogonalLoop=1;jettySize=auto;html=1;exitX=0.5;exitY=1;exitDx=0;exitDy=0;" edge="1" parent="epZNPIwb_9kqau7Ob3g8-163" source="epZNPIwb_9kqau7Ob3g8-55" target="epZNPIwb_9kqau7Ob3g8-157">
          <mxGeometry relative="1" as="geometry" />
        </mxCell>
        <mxCell id="epZNPIwb_9kqau7Ob3g8-55" value="JA" style="whiteSpace=wrap;html=1;rounded=0;" vertex="1" parent="epZNPIwb_9kqau7Ob3g8-163">
          <mxGeometry x="201" y="110" width="120" height="30" as="geometry" />
        </mxCell>
        <mxCell id="epZNPIwb_9kqau7Ob3g8-60" value="" style="edgeStyle=orthogonalEdgeStyle;rounded=0;orthogonalLoop=1;jettySize=auto;html=1;" edge="1" parent="epZNPIwb_9kqau7Ob3g8-163" source="epZNPIwb_9kqau7Ob3g8-57" target="epZNPIwb_9kqau7Ob3g8-59">
          <mxGeometry relative="1" as="geometry" />
        </mxCell>
        <mxCell id="epZNPIwb_9kqau7Ob3g8-57" value="Erstelle Neues Element" style="whiteSpace=wrap;html=1;rounded=0;" vertex="1" parent="epZNPIwb_9kqau7Ob3g8-163">
          <mxGeometry x="396" y="275" width="140" height="30" as="geometry" />
        </mxCell>
        <mxCell id="epZNPIwb_9kqau7Ob3g8-62" value="" style="edgeStyle=orthogonalEdgeStyle;rounded=0;orthogonalLoop=1;jettySize=auto;html=1;" edge="1" parent="epZNPIwb_9kqau7Ob3g8-163" source="epZNPIwb_9kqau7Ob3g8-59" target="epZNPIwb_9kqau7Ob3g8-61">
          <mxGeometry relative="1" as="geometry" />
        </mxCell>
        <mxCell id="epZNPIwb_9kqau7Ob3g8-59" value="Speichern der Zeile ins Element" style="whiteSpace=wrap;html=1;rounded=0;" vertex="1" parent="epZNPIwb_9kqau7Ob3g8-163">
          <mxGeometry x="396" y="325" width="140" height="30" as="geometry" />
        </mxCell>
        <mxCell id="epZNPIwb_9kqau7Ob3g8-64" value="" style="edgeStyle=orthogonalEdgeStyle;rounded=0;orthogonalLoop=1;jettySize=auto;html=1;" edge="1" parent="epZNPIwb_9kqau7Ob3g8-163" source="epZNPIwb_9kqau7Ob3g8-61" target="epZNPIwb_9kqau7Ob3g8-63">
          <mxGeometry relative="1" as="geometry" />
        </mxCell>
        <mxCell id="epZNPIwb_9kqau7Ob3g8-61" value="Zeilen ID ins Element" style="whiteSpace=wrap;html=1;rounded=0;" vertex="1" parent="epZNPIwb_9kqau7Ob3g8-163">
          <mxGeometry x="396" y="375" width="140" height="30" as="geometry" />
        </mxCell>
        <mxCell id="epZNPIwb_9kqau7Ob3g8-65" style="edgeStyle=orthogonalEdgeStyle;rounded=0;orthogonalLoop=1;jettySize=auto;html=1;exitX=0.5;exitY=1;exitDx=0;exitDy=0;" edge="1" parent="epZNPIwb_9kqau7Ob3g8-163" source="epZNPIwb_9kqau7Ob3g8-63">
          <mxGeometry relative="1" as="geometry">
            <mxPoint x="526" y="145" as="targetPoint" />
            <mxPoint x="486" y="455" as="sourcePoint" />
            <Array as="points">
              <mxPoint x="466" y="475" />
              <mxPoint x="561" y="475" />
              <mxPoint x="561" y="145" />
            </Array>
          </mxGeometry>
        </mxCell>
        <mxCell id="epZNPIwb_9kqau7Ob3g8-63" value="*ptr speichern des vorehrigen Elements" style="whiteSpace=wrap;html=1;rounded=0;" vertex="1" parent="epZNPIwb_9kqau7Ob3g8-163">
          <mxGeometry x="396" y="425" width="140" height="30" as="geometry" />
        </mxCell>
        <mxCell id="epZNPIwb_9kqau7Ob3g8-76" value="" style="edgeStyle=orthogonalEdgeStyle;rounded=0;orthogonalLoop=1;jettySize=auto;html=1;" edge="1" parent="epZNPIwb_9kqau7Ob3g8-163" source="epZNPIwb_9kqau7Ob3g8-67" target="epZNPIwb_9kqau7Ob3g8-75">
          <mxGeometry relative="1" as="geometry" />
        </mxCell>
        <mxCell id="epZNPIwb_9kqau7Ob3g8-67" value="Verwende Leeres Linked List" style="rounded=0;whiteSpace=wrap;html=1;" vertex="1" parent="epZNPIwb_9kqau7Ob3g8-163">
          <mxGeometry x="26" y="227.5" width="150" height="40" as="geometry" />
        </mxCell>
        <mxCell id="epZNPIwb_9kqau7Ob3g8-73" value="" style="edgeStyle=orthogonalEdgeStyle;rounded=0;orthogonalLoop=1;jettySize=auto;html=1;" edge="1" parent="epZNPIwb_9kqau7Ob3g8-163" source="epZNPIwb_9kqau7Ob3g8-72" target="epZNPIwb_9kqau7Ob3g8-67">
          <mxGeometry relative="1" as="geometry" />
        </mxCell>
        <mxCell id="epZNPIwb_9kqau7Ob3g8-78" value="" style="edgeStyle=orthogonalEdgeStyle;rounded=0;orthogonalLoop=1;jettySize=auto;html=1;" edge="1" parent="epZNPIwb_9kqau7Ob3g8-163" source="epZNPIwb_9kqau7Ob3g8-72" target="epZNPIwb_9kqau7Ob3g8-77">
          <mxGeometry relative="1" as="geometry" />
        </mxCell>
        <mxCell id="epZNPIwb_9kqau7Ob3g8-72" value="Verwenden geladenes Linked List" style="whiteSpace=wrap;html=1;" vertex="1" parent="epZNPIwb_9kqau7Ob3g8-163">
          <mxGeometry x="201" y="225" width="120" height="45" as="geometry" />
        </mxCell>
        <mxCell id="epZNPIwb_9kqau7Ob3g8-80" value="" style="edgeStyle=orthogonalEdgeStyle;rounded=0;orthogonalLoop=1;jettySize=auto;html=1;" edge="1" parent="epZNPIwb_9kqau7Ob3g8-163" source="epZNPIwb_9kqau7Ob3g8-75" target="epZNPIwb_9kqau7Ob3g8-79">
          <mxGeometry relative="1" as="geometry" />
        </mxCell>
        <mxCell id="epZNPIwb_9kqau7Ob3g8-75" value="Bool emtpy_list = true" style="rounded=0;whiteSpace=wrap;html=1;" vertex="1" parent="epZNPIwb_9kqau7Ob3g8-163">
          <mxGeometry x="36" y="305" width="130" height="40" as="geometry" />
        </mxCell>
        <mxCell id="epZNPIwb_9kqau7Ob3g8-81" value="" style="edgeStyle=orthogonalEdgeStyle;rounded=0;orthogonalLoop=1;jettySize=auto;html=1;" edge="1" parent="epZNPIwb_9kqau7Ob3g8-163" source="epZNPIwb_9kqau7Ob3g8-77" target="epZNPIwb_9kqau7Ob3g8-79">
          <mxGeometry relative="1" as="geometry" />
        </mxCell>
        <mxCell id="epZNPIwb_9kqau7Ob3g8-77" value="Bool emptry_list = false" style="whiteSpace=wrap;html=1;" vertex="1" parent="epZNPIwb_9kqau7Ob3g8-163">
          <mxGeometry x="185.38" y="305" width="151.25" height="40" as="geometry" />
        </mxCell>
        <mxCell id="epZNPIwb_9kqau7Ob3g8-79" value="Endloss schleife für Endlose User Input" style="rounded=0;whiteSpace=wrap;html=1;" vertex="1" parent="epZNPIwb_9kqau7Ob3g8-163">
          <mxGeometry x="36" y="385" width="300" height="60" as="geometry" />
        </mxCell>
        <mxCell id="epZNPIwb_9kqau7Ob3g8-134" style="edgeStyle=orthogonalEdgeStyle;rounded=0;orthogonalLoop=1;jettySize=auto;html=1;entryX=1;entryY=0.5;entryDx=0;entryDy=0;exitX=1;exitY=0.5;exitDx=0;exitDy=0;" edge="1" parent="epZNPIwb_9kqau7Ob3g8-163" source="epZNPIwb_9kqau7Ob3g8-95" target="epZNPIwb_9kqau7Ob3g8-79">
          <mxGeometry relative="1" as="geometry" />
        </mxCell>
        <mxCell id="epZNPIwb_9kqau7Ob3g8-95" value="Lesen der Eingabe und ausführen der Funktion" style="rounded=0;whiteSpace=wrap;html=1;" vertex="1" parent="epZNPIwb_9kqau7Ob3g8-163">
          <mxGeometry x="36" y="465" width="300" height="60" as="geometry" />
        </mxCell>
        <mxCell id="epZNPIwb_9kqau7Ob3g8-131" value="" style="endArrow=classic;html=1;rounded=0;exitX=0.5;exitY=1;exitDx=0;exitDy=0;" edge="1" parent="epZNPIwb_9kqau7Ob3g8-163" source="epZNPIwb_9kqau7Ob3g8-79">
          <mxGeometry width="50" height="50" relative="1" as="geometry">
            <mxPoint x="135.38" y="515" as="sourcePoint" />
            <mxPoint x="185.38" y="465" as="targetPoint" />
          </mxGeometry>
        </mxCell>
        <mxCell id="epZNPIwb_9kqau7Ob3g8-162" style="edgeStyle=orthogonalEdgeStyle;rounded=0;orthogonalLoop=1;jettySize=auto;html=1;exitX=0.5;exitY=1;exitDx=0;exitDy=0;entryX=0.5;entryY=0;entryDx=0;entryDy=0;" edge="1" parent="epZNPIwb_9kqau7Ob3g8-163" source="epZNPIwb_9kqau7Ob3g8-157" target="epZNPIwb_9kqau7Ob3g8-72">
          <mxGeometry relative="1" as="geometry" />
        </mxCell>
        <mxCell id="epZNPIwb_9kqau7Ob3g8-157" value="Bearbeite alle nächte *ptr elemente" style="rounded=0;whiteSpace=wrap;html=1;" vertex="1" parent="epZNPIwb_9kqau7Ob3g8-163">
          <mxGeometry x="201" y="155" width="120" height="45" as="geometry" />
        </mxCell>
        <mxCell id="epZNPIwb_9kqau7Ob3g8-165" value="" style="group" vertex="1" connectable="0" parent="1">
          <mxGeometry x="10" y="20" width="320" height="470" as="geometry" />
        </mxCell>
        <mxCell id="epZNPIwb_9kqau7Ob3g8-8" value="Reports Use Cases" style="rounded=0;whiteSpace=wrap;html=1;verticalAlign=top;" vertex="1" parent="epZNPIwb_9kqau7Ob3g8-165">
          <mxGeometry x="100" width="220" height="470" as="geometry" />
        </mxCell>
        <mxCell id="epZNPIwb_9kqau7Ob3g8-4" value="Actor" style="shape=umlActor;verticalLabelPosition=bottom;verticalAlign=top;html=1;outlineConnect=0;" vertex="1" parent="epZNPIwb_9kqau7Ob3g8-165">
          <mxGeometry y="205" width="30" height="60" as="geometry" />
        </mxCell>
        <mxCell id="epZNPIwb_9kqau7Ob3g8-5" value="Tätikeit Eintragen" style="ellipse;whiteSpace=wrap;html=1;" vertex="1" parent="epZNPIwb_9kqau7Ob3g8-165">
          <mxGeometry x="150" y="40" width="160" height="80" as="geometry" />
        </mxCell>
        <mxCell id="epZNPIwb_9kqau7Ob3g8-6" value="Tätikeiten Lesen (Alle)" style="ellipse;whiteSpace=wrap;html=1;" vertex="1" parent="epZNPIwb_9kqau7Ob3g8-165">
          <mxGeometry x="150" y="150" width="160" height="80" as="geometry" />
        </mxCell>
        <mxCell id="epZNPIwb_9kqau7Ob3g8-7" value="Tätikeit Löschen -&amp;gt; ID" style="ellipse;whiteSpace=wrap;html=1;" vertex="1" parent="epZNPIwb_9kqau7Ob3g8-165">
          <mxGeometry x="150" y="270" width="160" height="80" as="geometry" />
        </mxCell>
        <mxCell id="epZNPIwb_9kqau7Ob3g8-9" value="" style="endArrow=classic;html=1;rounded=0;entryX=0;entryY=0.5;entryDx=0;entryDy=0;" edge="1" parent="epZNPIwb_9kqau7Ob3g8-165" source="epZNPIwb_9kqau7Ob3g8-4" target="epZNPIwb_9kqau7Ob3g8-8">
          <mxGeometry width="50" height="50" relative="1" as="geometry">
            <mxPoint x="360" y="350" as="sourcePoint" />
            <mxPoint x="410" y="300" as="targetPoint" />
          </mxGeometry>
        </mxCell>
        <mxCell id="epZNPIwb_9kqau7Ob3g8-83" value="Programm Beenden" style="ellipse;whiteSpace=wrap;html=1;" vertex="1" parent="epZNPIwb_9kqau7Ob3g8-165">
          <mxGeometry x="150" y="370" width="160" height="80" as="geometry" />
        </mxCell>
        <mxCell id="epZNPIwb_9kqau7Ob3g8-88" value="" style="endArrow=none;html=1;rounded=0;entryX=0;entryY=1;entryDx=0;entryDy=0;exitX=0;exitY=0.5;exitDx=0;exitDy=0;" edge="1" parent="epZNPIwb_9kqau7Ob3g8-165" source="epZNPIwb_9kqau7Ob3g8-8" target="epZNPIwb_9kqau7Ob3g8-5">
          <mxGeometry width="50" height="50" relative="1" as="geometry">
            <mxPoint x="30" y="160" as="sourcePoint" />
            <mxPoint x="80" y="110" as="targetPoint" />
          </mxGeometry>
        </mxCell>
        <mxCell id="epZNPIwb_9kqau7Ob3g8-89" value="" style="endArrow=none;html=1;rounded=0;entryX=0;entryY=1;entryDx=0;entryDy=0;exitX=0;exitY=0.5;exitDx=0;exitDy=0;" edge="1" parent="epZNPIwb_9kqau7Ob3g8-165" source="epZNPIwb_9kqau7Ob3g8-8" target="epZNPIwb_9kqau7Ob3g8-6">
          <mxGeometry width="50" height="50" relative="1" as="geometry">
            <mxPoint x="40" y="170" as="sourcePoint" />
            <mxPoint x="90" y="120" as="targetPoint" />
          </mxGeometry>
        </mxCell>
        <mxCell id="epZNPIwb_9kqau7Ob3g8-90" value="" style="endArrow=none;html=1;rounded=0;entryX=0;entryY=0;entryDx=0;entryDy=0;exitX=0;exitY=0.5;exitDx=0;exitDy=0;" edge="1" parent="epZNPIwb_9kqau7Ob3g8-165" source="epZNPIwb_9kqau7Ob3g8-8" target="epZNPIwb_9kqau7Ob3g8-7">
          <mxGeometry width="50" height="50" relative="1" as="geometry">
            <mxPoint x="50" y="180" as="sourcePoint" />
            <mxPoint x="100" y="130" as="targetPoint" />
          </mxGeometry>
        </mxCell>
        <mxCell id="epZNPIwb_9kqau7Ob3g8-91" value="" style="endArrow=none;html=1;rounded=0;entryX=0;entryY=0;entryDx=0;entryDy=0;" edge="1" parent="epZNPIwb_9kqau7Ob3g8-165" target="epZNPIwb_9kqau7Ob3g8-83">
          <mxGeometry width="50" height="50" relative="1" as="geometry">
            <mxPoint x="100" y="240" as="sourcePoint" />
            <mxPoint x="110" y="140" as="targetPoint" />
          </mxGeometry>
        </mxCell>
      </root>
    </mxGraphModel>
  </diagram>
</mxfile>
